<svg xmlns="http://www.w3.org/2000/svg" viewBox="0 0 512 512" role="img" aria-label="SeniorFlow icon">
  <defs>
    <linearGradient id="bg" x1="0" x2="1" y1="0" y2="1">
      <stop offset="0%" stop-color="#0b1220"/>
      <stop offset="100%" stop-color="#14233f"/>
    </linearGradient>
    <linearGradient id="ac" x1="0" x2="1" y1="0" y2="1">
      <stop offset="0%" stop-color="#21b9d6"/>
      <stop offset="100%" stop-color="#64d2ff"/>
    </linearGradient>
  </defs>
  <rect x="24" y="24" width="464" height="464" rx="100" fill="url(#bg)"/>
  <path d="M148 170c0-30 24-54 54-54h126c18 0 33 15 33 33s-15 33-33 33H212v44h92c30 0 54 24 54 54s-24 54-54 54H190c-18 0-33-15-33-33s15-33 33-33h103v-44h-91c-30 0-54-24-54-54z" fill="url(#ac)"/>
  <circle cx="386" cy="128" r="22" fill="#34d399"/>
</svg>