<svg xmlns="http://www.w3.org/2000/svg" viewBox="0 0 512 512" role="img" aria-label="SeniorFlow">
  <defs>
    <linearGradient id="bg" x1="0" x2="1" y1="0" y2="1">
      <stop offset="0%" stop-color="#0b1220"/>
      <stop offset="100%" stop-color="#14233f"/>
    </linearGradient>
    <linearGradient id="ac" x1="0" x2="1" y1="0" y2="1">
      <stop offset="0%" stop-color="#21b9d6"/>
      <stop offset="100%" stop-color="#64d2ff"/>
    </linearGradient>
  </defs>
  <rect x="24" y="24" width="464" height="464" rx="96" fill="url(#bg)"/>
  <circle cx="390" cy="126" r="24" fill="#34d399" opacity=".95"/>
  <path d="M140 168c0-29 23-52 52-52h134c18 0 33 15 33 33s-15 33-33 33H206v44h96c29 0 52 23 52 52s-23 52-52 52H187c-18 0-33-15-33-33s15-33 33-33h101v-44h-96c-29 0-52-23-52-52z" fill="url(#ac)"/>
  <path d="M164 370h184" stroke="#8be7ff" stroke-width="20" stroke-linecap="round" opacity=".75"/>
</svg>