<svg xmlns="http://www.w3.org/2000/svg" viewBox="0 0 960 240" role="img" aria-label="SeniorFlow Control Pro">
  <defs>
    <linearGradient id="g" x1="0" x2="1" y1="0" y2="1">
      <stop offset="0%" stop-color="#21b9d6"/>
      <stop offset="100%" stop-color="#64d2ff"/>
    </linearGradient>
  </defs>
  <rect width="960" height="240" rx="40" fill="#0b1220"/>
  <rect x="28" y="28" width="184" height="184" rx="42" fill="#14233f"/>
  <path d="M74 86c0-20 16-36 36-36h50c12 0 22 10 22 22s-10 22-22 22h-45v28h37c20 0 36 16 36 36s-16 36-36 36h-51c-12 0-22-10-22-22s10-22 22-22h45v-28h-36c-20 0-36-16-36-36z" fill="url(#g)"/>
  <circle cx="180" cy="70" r="10" fill="#34d399"/>
  <text x="252" y="108" fill="#eef6ff" font-family="Inter, Arial, sans-serif" font-size="56" font-weight="800">SeniorFlow</text>
  <text x="252" y="158" fill="#9bb0ca" font-family="Inter, Arial, sans-serif" font-size="28" font-weight="500">Control Pro</text>
</svg>